<?xml version="1.0" encoding="UTF-8" standalone="no"?>
<!-- Created with Inkscape (http://www.inkscape.org/) -->

<svg
   xmlns:dc="http://purl.org/dc/elements/1.1/"
   xmlns:cc="http://creativecommons.org/ns#"
   xmlns:rdf="http://www.w3.org/1999/02/22-rdf-syntax-ns#"
   xmlns:svg="http://www.w3.org/2000/svg"
   xmlns="http://www.w3.org/2000/svg"
   xmlns:sodipodi="http://sodipodi.sourceforge.net/DTD/sodipodi-0.dtd"
   xmlns:inkscape="http://www.inkscape.org/namespaces/inkscape"
   width="744.09448819"
   height="1052.3622047"
   id="svg2"
   version="1.1"
   inkscape:version="0.47 r22583"
   sodipodi:docname="node.svg"
   inkscape:export-filename="/users/tcheneau/sources/wiredto154-logger/images/node.png"
   inkscape:export-xdpi="100"
   inkscape:export-ydpi="100">
  <defs
     id="defs4">
    <inkscape:perspective
       sodipodi:type="inkscape:persp3d"
       inkscape:vp_x="0 : 526.18109 : 1"
       inkscape:vp_y="0 : 1000 : 0"
       inkscape:vp_z="744.09448 : 526.18109 : 1"
       inkscape:persp3d-origin="372.04724 : 350.78739 : 1"
       id="perspective10" />
    <filter
       inkscape:collect="always"
       id="filter3599"
       x="-0.0432083"
       width="1.0864166"
       y="-0.11018116"
       height="1.2203623">
      <feGaussianBlur
         inkscape:collect="always"
         stdDeviation="0.65584024"
         id="feGaussianBlur3601" />
    </filter>
    <filter
       inkscape:collect="always"
       id="filter3603">
      <feGaussianBlur
         inkscape:collect="always"
         stdDeviation="0.57857143"
         id="feGaussianBlur3605" />
    </filter>
    <filter
       inkscape:collect="always"
       id="filter4261">
      <feGaussianBlur
         inkscape:collect="always"
         stdDeviation="2.1736803"
         id="feGaussianBlur4263" />
    </filter>
  </defs>
  <sodipodi:namedview
     id="base"
     pagecolor="#ffffff"
     bordercolor="#666666"
     borderopacity="1.0"
     inkscape:pageopacity="0.0"
     inkscape:pageshadow="2"
     inkscape:zoom="3.959798"
     inkscape:cx="251.63557"
     inkscape:cy="792.75737"
     inkscape:document-units="px"
     inkscape:current-layer="layer1"
     showgrid="false"
     inkscape:window-width="1048"
     inkscape:window-height="1659"
     inkscape:window-x="0"
     inkscape:window-y="19"
     inkscape:window-maximized="0" />
  <metadata
     id="metadata7">
    <rdf:RDF>
      <cc:Work
         rdf:about="">
        <dc:format>image/svg+xml</dc:format>
        <dc:type
           rdf:resource="http://purl.org/dc/dcmitype/StillImage" />
        <dc:title></dc:title>
      </cc:Work>
    </rdf:RDF>
  </metadata>
  <g
     inkscape:label="Layer 1"
     inkscape:groupmode="layer"
     id="layer1">
    <path
       sodipodi:type="arc"
       style="fill:#8c8c8a;fill-opacity:1;fill-rule:evenodd;stroke:#000000;stroke-width:1.32244896999999995;stroke-linecap:round;stroke-linejoin:round;stroke-miterlimit:4;stroke-opacity:1;stroke-dasharray:none;stroke-dashoffset:0;filter:url(#filter3603)"
       id="path2816"
       sodipodi:cx="256.42856"
       sodipodi:cy="231.6479"
       sodipodi:rx="57.857143"
       sodipodi:ry="57.857143"
       d="m 314.2857,231.6479 a 57.857143,57.857143 0 1 1 -115.71429,0 57.857143,57.857143 0 1 1 115.71429,0 z"
       transform="matrix(0.75617284,0,0,0.75617284,48.417104,42.374907)" />
    <path
       style="fill:#d1d1d1;fill-opacity:1;fill-rule:evenodd;stroke:none;filter:url(#filter4261)"
       d="M 242.3125 175.5625 L 237.4375 180.4375 L 231.46875 177 L 228.03125 182.96875 L 221.34375 181.1875 L 219.5625 187.875 L 212.65625 187.875 L 212.65625 194.78125 L 205.96875 196.5625 L 207.75 203.25 L 201.78125 206.6875 L 205.21875 212.65625 L 200.34375 217.53125 L 205.25 222.4375 L 201.78125 228.40625 L 207.75 231.84375 L 205.96875 238.53125 L 212.65625 240.3125 L 212.65625 247.21875 L 219.5625 247.21875 L 221.34375 253.875 L 228 252.09375 L 231.46875 258.0625 L 237.4375 254.625 L 242.3125 259.5 L 247.21875 254.59375 L 253.1875 258.0625 L 256.625 252.09375 L 263.3125 253.875 L 265.09375 247.21875 L 272 247.21875 L 272 240.3125 L 278.65625 238.53125 L 276.875 231.84375 L 282.84375 228.40625 L 279.375 222.4375 L 284.28125 217.53125 L 279.40625 212.65625 L 282.84375 206.6875 L 276.875 203.25 L 278.65625 196.5625 L 272 194.78125 L 272 187.875 L 265.09375 187.875 L 263.3125 181.1875 L 256.625 182.96875 L 253.1875 177 L 247.21875 180.46875 L 242.3125 175.5625 z "
       id="rect4225" />
  </g>
</svg>
